<svg xmlns="http://www.w3.org/2000/svg" viewBox="0 0 64 64" role="img" aria-label="China Tea Library favicon">
  <defs>
    <linearGradient id="bg" x1="0" y1="0" x2="1" y2="1">
      <stop offset="0%" stop-color="#f6ead7"/>
      <stop offset="100%" stop-color="#e0c29a"/>
    </linearGradient>
    <linearGradient id="tea" x1="0" y1="0" x2="1" y2="1">
      <stop offset="0%" stop-color="#9c5c2b"/>
      <stop offset="100%" stop-color="#355e3b"/>
    </linearGradient>
  </defs>
  <rect x="4" y="4" width="56" height="56" rx="14" fill="url(#bg)"/>
  <path d="M20 38h20c0 6-4.8 10-10 10s-10-4-10-10Z" fill="#fffaf3"/>
  <path d="M20 38h20c0-4.2-2.2-7.2-5.6-9.1-2.1-1.2-4.2-2.1-5.1-4.9-1.8 2.2-4.1 3.5-6 5.2-2 1.8-3.3 4.1-3.3 8.8Z" fill="url(#tea)"/>
  <path d="M40 39h4.5c2.8 0 5-2.2 5-5 0-2.7-2.2-4.9-5-4.9H42" fill="none" stroke="#fffaf3" stroke-width="3" stroke-linecap="round"/>
  <path d="M28 19c2-2.4 2.4-4.7 1.1-7" fill="none" stroke="#355e3b" stroke-width="2.6" stroke-linecap="round" opacity=".9"/>
  <path d="M36 20c2-2.4 2.4-4.7 1.1-7" fill="none" stroke="#9c5c2b" stroke-width="2.6" stroke-linecap="round" opacity=".9"/>
</svg>
