<svg xmlns="http://www.w3.org/2000/svg" viewBox="0 0 1200 700"><rect width="1200" height="700" fill="#f5efe5"/><ellipse cx="620" cy="580" rx="280" ry="55" fill="#cbb399"/><path d="M395 289c0-89 72-161 161-161h131c89 0 161 72 161 161v160c0 89-72 161-161 161H556c-89 0-161-72-161-161z" fill="#81512f"/><ellipse cx="621" cy="289" rx="180" ry="46" fill="#f6f0e8"/><ellipse cx="621" cy="289" rx="150" ry="28" fill="#986033"/><path d="M817 300c83 3 147 68 147 147 0 79-64 144-144 147h-22v-78h18c38 0 68-30 68-68 0-36-28-66-65-69z" fill="#81512f"/></svg>
